<?xml version="1.0" encoding="utf-8"?>
<!-- Generator: Adobe Illustrator 15.0.0, SVG Export Plug-In . SVG Version: 6.00 Build 0)  -->
<!DOCTYPE svg PUBLIC "-//W3C//DTD SVG 1.1//EN" "http://www.w3.org/Graphics/SVG/1.1/DTD/svg11.dtd">
<svg version="1.1" id="图层_1" xmlns="http://www.w3.org/2000/svg" xmlns:xlink="http://www.w3.org/1999/xlink" x="0px" y="0px"
	 width="200px" height="200px" viewBox="0 0 200 200" enable-background="new 0 0 200 200" xml:space="preserve">
<path fill="#D9D9D9" d="M107.735,7.033l71.687,39.807c5.016,2.776,8.135,8.053,8.146,13.787v78.788
	c-0.011,5.733-3.13,11.011-8.146,13.786l-71.687,39.807c-4.841,2.684-10.723,2.684-15.563,0l-71.687-39.807
	c-5.017-2.775-8.135-8.053-8.146-13.786V60.627c0.011-5.733,3.129-11.011,8.146-13.787L92.173,7.033
	C97.013,4.35,102.895,4.35,107.735,7.033z"/>
<path fill="#EBEBEB" d="M100.747,19.473c-0.491-0.272-1.089-0.272-1.58,0L27.481,59.279c-0.492,0.271-0.799,0.787-0.801,1.348
	v78.788c0,0.552,0.303,1.067,0.801,1.347l71.686,39.807c0.492,0.272,1.089,0.272,1.58,0l71.686-39.807
	c0.492-0.27,0.801-0.786,0.803-1.347V60.627c-0.002-0.562-0.31-1.078-0.803-1.348L100.747,19.473z M107.735,7.033l71.687,39.807
	c5.016,2.776,8.135,8.053,8.146,13.787v78.788c-0.011,5.733-3.13,11.011-8.146,13.786l-71.687,39.807
	c-4.841,2.684-10.723,2.684-15.563,0l-71.687-39.807c-5.017-2.775-8.135-8.053-8.146-13.786V60.627
	c0.011-5.733,3.129-11.011,8.146-13.787L92.173,7.033C97.013,4.35,102.895,4.35,107.735,7.033z"/>
<path fill="#FFFFFF" d="M99.957,153.54c-17.493,0-31.666-14.102-31.666-31.493v-6.638h63.338v6.638
	c0,17.392-14.18,31.493-31.666,31.493H99.957L99.957,153.54z M90.101,140.394c2.137,2.999,5.51,4.483,9.85,4.483
	c4.341,0,7.712-1.484,9.851-4.483c0.76-1.063,0.51-2.534-0.564-3.295c-1.074-0.76-2.554-0.504-3.313,0.559
	c-1.182,1.65-3.088,2.493-5.979,2.493c-2.892,0-4.797-0.838-5.979-2.493c-0.759-1.063-2.245-1.313-3.313-0.559
	c-1.069,0.753-1.318,2.232-0.564,3.295H90.101z M88.082,123.282c2.186,0,3.96-1.764,3.96-3.937c0-2.174-1.77-3.938-3.96-3.938
	c-2.186,0-3.96,1.764-3.96,3.938C84.122,121.519,85.891,123.282,88.082,123.282z M111.832,123.282c2.186,0,3.961-1.764,3.961-3.937
	c0-2.174-1.77-3.938-3.961-3.938c-2.185,0-3.96,1.764-3.96,3.938C107.872,121.519,109.642,123.282,111.832,123.282z
	 M156.822,108.467H42.819c-0.584,0-1.058-0.473-1.058-1.057V87.899c-0.001-0.348,0.169-0.674,0.456-0.872
	c0.286-0.198,0.65-0.243,0.975-0.12l30.069,11.317l-4.222-20.497c-0.819-3.985,0.642-5.985,5.558-8.871
	c1.395-0.819,9.958-5.416,24.458-5.416s18.437,2.328,24.457,5.416c3.83,2.411,7.256,5.083,7.256,7.363
	c0,0.504-0.053,1.009-0.154,1.508l-4.221,20.497l30.062-11.317c0.326-0.123,0.69-0.078,0.976,0.12
	c0.286,0.198,0.456,0.524,0.456,0.872v19.511c-0.002,0.583-0.475,1.056-1.058,1.057H156.822z M99.815,45.136
	c12.558,0,15.439,5.878,14.292,8.592l-1.325,4.507c-4.321-1.456-8.644-2.179-12.966-2.179s-8.646,0.724-12.968,2.179l-1.325-4.507
	C84.424,49.98,87.256,45.136,99.815,45.136z M93.621,93.741c-0.583,0-1.056,0.474-1.056,1.058v5.255
	c0.001,0.583,0.474,1.055,1.056,1.057h12.405c0.582-0.002,1.054-0.474,1.056-1.057v-5.255c0-0.583-0.473-1.057-1.056-1.058H93.621z"
	/>
</svg>
