<?xml version="1.0" standalone="no"?><!DOCTYPE svg PUBLIC "-//W3C//DTD SVG 1.1//EN" "http://www.w3.org/Graphics/SVG/1.1/DTD/svg11.dtd"><svg t="1564110273343" class="icon" viewBox="0 0 1024 1024" version="1.1" xmlns="http://www.w3.org/2000/svg" p-id="14809" xmlns:xlink="http://www.w3.org/1999/xlink" width="200" height="200"><defs><style type="text/css"></style></defs><path d="M551.84754331 32.1041652l370.04300255 205.48286424a81.51259627 81.51259627 0 0 1 42.05058637 71.16906923v406.70212078a81.51858323 81.51858323 0 0 1-42.05058637 71.16787224L551.84754331 992.10416595a82.83561989 82.83561989 0 0 1-80.33564503 0L101.46889475 786.62609169A81.53175319 81.53175319 0 0 1 59.41830837 715.45821945V308.75609867a81.52337222 81.52337222 0 0 1 42.05058638-71.16906923L471.51189828 32.1041652a82.8607628 82.8607628 0 0 1 80.33564503 0z m0 0" fill="#D9D9D9" p-id="14810"></path><path d="M515.77390869 96.31808464a8.41107488 8.41107488 0 0 0-8.15724591 0L137.57485625 301.79735591a7.96926867 7.96926867 0 0 0-4.13429723 6.95874276v406.70212078c0 2.84839144 1.56248466 5.51239664 4.13429723 6.9539528l370.04300353 205.48166625a8.40508889 8.40508889 0 0 0 8.15724591 0l370.04300353-205.48286325a7.96208569 7.96208569 0 0 0 4.13429822-6.95395378v-406.7009228a7.96926867 7.96926867 0 0 0-4.13429822-6.95874276L515.77390869 96.31808464z m36.07363462-64.21391944l370.04300255 205.48286424a81.51259627 81.51259627 0 0 1 42.05058637 71.16906923v406.70212078a81.51858323 81.51858323 0 0 1-42.05058637 71.16787224L551.84754331 992.10416595a82.83561989 82.83561989 0 0 1-80.33564503 0L101.46889475 786.62609169A81.53175319 81.53175319 0 0 1 59.41830837 715.45821945V308.75609867a81.52337222 81.52337222 0 0 1 42.05058638-71.16906923L471.51189828 32.1041652a82.8607628 82.8607628 0 0 1 80.33564503 0z m0 0" fill="#EBEBEB" p-id="14811"></path><path d="M429.91868305 269.24499898v81.31863305h-73.04045864c-9.16178583 0-17.28550786-3.74158181-20.16622618-9.25517644l-28.35220795-54.22599098c-3.70925395-7.10840616 2.30122266-14.76877008 13.45532541-17.13105549a32.71758525 32.71758525 0 0 1 6.71209776-0.70641014h101.3914696z m163.55440237 0h101.38787761c11.73958636 0 21.27612867 6.07034137 21.27612867 13.54871504a9.08036916 9.08036916 0 0 1-1.10391651 4.28875059l-28.35220697 54.22599098c-2.88071831 5.5459215-11.03796422 9.25517545-20.17221314 9.25517644h-73.03566966v-81.31863305z m-81.77720119 528.59625821c-112.91553984 0-204.44001047-91.02758766-204.44000948-203.3025691 0-112.27138945 91.52446964-203.30376609 204.44000948-203.30376707 112.91673783 0 204.44001047 91.03237762 204.44001047 203.30376707 0 112.27498144-91.52327264 203.30256909-204.44001047 203.3025691z m-40.8856071-528.59625821h81.77121421v81.31863305h-81.77121421v-81.31863305z m40.8856071 421.59660736l87.78169083 53.76143686a11.47617844 11.47617844 0 0 0 8.5499633 1.41282127c6.4822147-1.64629631 10.46684953-8.16562687 8.98458455-14.68495941l-21.94901494-103.59570965 76.19775483-70.37286047a12.41247164 12.41247164 0 0 0 3.92357208-8.03033241c0.75789492-6.63666708-3.97505588-12.6435517-10.60214499-13.4565224l-101.33160384-10.26570235-40.70361685-97.22484351a11.65098572 11.65098572 0 0 0-10.83681703-7.37540607 11.64978773 11.64978773 0 0 0-10.83202804 7.37540607l-40.70361685 97.22484351-101.33160384 10.26570235a11.58034402 11.58034402 0 0 0-7.69388878 4.07922145c-4.33065642 5.14003514-3.88645523 12.77286117 1.0105259 17.3741085l76.19775483 70.37525545-21.94542197 103.59810464a12.78243914 12.78243914 0 0 0 1.34816653 8.88640594 11.582739 11.582739 0 0 0 7.15510097 5.66086303 11.585133 11.585133 0 0 0 9.02649038-1.27752581l87.78288783-53.75544989-0.0287349 0.0251429z m0 0" fill="#FFFFFF" p-id="14812"></path></svg>