<?xml version="1.0" encoding="utf-8"?>
<!-- Generator: Adobe Illustrator 15.0.0, SVG Export Plug-In . SVG Version: 6.00 Build 0)  -->
<!DOCTYPE svg PUBLIC "-//W3C//DTD SVG 1.1//EN" "http://www.w3.org/Graphics/SVG/1.1/DTD/svg11.dtd">
<svg version="1.1" id="图层_1" xmlns="http://www.w3.org/2000/svg" xmlns:xlink="http://www.w3.org/1999/xlink" x="0px" y="0px"
	 width="200px" height="200px" viewBox="0 0 200 200" enable-background="new 0 0 200 200" xml:space="preserve">
<path fill="#D9D9D9" d="M107.718,7.033l71.687,39.807c5.018,2.776,8.136,8.054,8.146,13.788v78.789
	c-0.011,5.732-3.129,11.011-8.146,13.786l-71.687,39.806c-4.84,2.685-10.722,2.685-15.563,0l-71.687-39.806
	c-5.016-2.776-8.134-8.054-8.146-13.786V60.627c0.011-5.734,3.129-11.011,8.146-13.788L92.155,7.033
	C96.996,4.35,102.877,4.35,107.718,7.033z"/>
<path fill="#EBEBEB" d="M100.729,19.473c-0.49-0.273-1.087-0.273-1.579,0L27.464,59.279c-0.493,0.27-0.799,0.787-0.801,1.348v78.789
	c0,0.551,0.303,1.067,0.801,1.346l71.686,39.808c0.492,0.272,1.089,0.272,1.58,0l71.687-39.808c0.491-0.27,0.799-0.785,0.801-1.346
	V60.627c-0.002-0.562-0.31-1.078-0.801-1.348L100.729,19.473z M107.718,7.033l71.687,39.807c5.018,2.776,8.136,8.054,8.146,13.788
	v78.789c-0.011,5.732-3.129,11.011-8.146,13.786l-71.687,39.806c-4.84,2.685-10.722,2.685-15.563,0l-71.687-39.806
	c-5.016-2.776-8.134-8.054-8.146-13.786V60.627c0.011-5.734,3.129-11.011,8.146-13.788L92.155,7.033
	C96.996,4.35,102.877,4.35,107.718,7.033z"/>
<path fill="#FFFFFF" d="M99.939,151.433c-17.493,0-31.666-14.104-31.666-31.494v-6.637h63.337v6.637
	c0,17.391-14.18,31.494-31.666,31.494H99.939z M90.083,138.287c2.138,2.997,5.511,4.481,9.851,4.481c4.34,0,7.713-1.484,9.852-4.481
	c0.759-1.063,0.509-2.537-0.564-3.296c-1.075-0.76-2.554-0.505-3.314,0.557c-1.182,1.651-3.087,2.495-5.979,2.495
	c-2.892,0-4.797-0.838-5.979-2.495c-0.759-1.062-2.245-1.311-3.313-0.557c-1.069,0.754-1.318,2.232-0.564,3.296H90.083z
	 M88.064,121.174c2.185,0,3.96-1.764,3.96-3.937c0-2.174-1.77-3.936-3.96-3.936c-2.186,0-3.96,1.762-3.96,3.936
	C84.104,119.41,85.874,121.174,88.064,121.174z M111.815,121.174c2.185,0,3.959-1.764,3.959-3.937c0-2.174-1.77-3.936-3.959-3.936
	c-2.186,0-3.96,1.762-3.96,3.936C107.855,119.41,109.625,121.174,111.815,121.174z M124.747,106.36H58.773
	c-0.584-0.001-1.057-0.474-1.057-1.059V90.108c0-0.357,0.18-0.691,0.48-0.887c0.3-0.195,0.678-0.225,1.005-0.081l13.751,6.074
	l-4.228-21.554c-0.831-4.233,0.653-6.371,5.636-9.436c1.413-0.867,10.1-5.759,24.801-5.759c14.703,0,18.704,2.476,24.802,5.759
	c3.883,2.565,7.363,5.409,7.363,7.832c0,0.541-0.054,1.075-0.154,1.604l-4.228,21.554l13.745-6.074
	c0.327-0.142,0.703-0.109,1.002,0.085c0.299,0.194,0.48,0.526,0.483,0.882v15.194c-0.002,0.584-0.475,1.057-1.059,1.059H124.747z
	 M99.933,43.022c6.366,0,7.827,4.441,7.25,6.496l-0.671,3.409H93.361l-0.672-3.409C92.131,46.686,93.568,43.022,99.933,43.022z
	 M93.633,90.69c-0.583,0-1.056,0.473-1.056,1.056v5.725c0.001,0.583,0.473,1.056,1.056,1.057h12.613
	c0.583-0.001,1.055-0.474,1.056-1.057v-5.725c0-0.583-0.473-1.056-1.056-1.056H93.633z"/>
</svg>
