<?xml version="1.0" encoding="utf-8"?>
<!-- Generator: Adobe Illustrator 15.0.0, SVG Export Plug-In . SVG Version: 6.00 Build 0)  -->
<!DOCTYPE svg PUBLIC "-//W3C//DTD SVG 1.1//EN" "http://www.w3.org/Graphics/SVG/1.1/DTD/svg11.dtd">
<svg version="1.1" id="图层_1" xmlns="http://www.w3.org/2000/svg" xmlns:xlink="http://www.w3.org/1999/xlink" x="0px" y="0px"
	 width="200px" height="200px" viewBox="0 0 200 200" enable-background="new 0 0 200 200" xml:space="preserve">
<path fill="#D9D9D9" d="M107.718,7.033l71.687,39.807c5.018,2.776,8.136,8.054,8.146,13.788v78.789
	c-0.011,5.732-3.129,11.011-8.146,13.786l-71.687,39.806c-4.84,2.685-10.722,2.685-15.563,0l-71.687-39.806
	c-5.016-2.776-8.134-8.054-8.146-13.786V60.627c0.011-5.734,3.129-11.011,8.146-13.788L92.155,7.033
	C96.996,4.35,102.877,4.35,107.718,7.033z"/>
<path fill="#EBEBEB" d="M100.729,19.473c-0.49-0.273-1.087-0.273-1.579,0L27.464,59.279c-0.493,0.27-0.799,0.787-0.801,1.348v78.789
	c0,0.551,0.303,1.067,0.801,1.346l71.686,39.808c0.492,0.272,1.089,0.272,1.58,0l71.687-39.808c0.491-0.27,0.799-0.785,0.801-1.346
	V60.627c-0.002-0.562-0.31-1.078-0.801-1.348L100.729,19.473z M107.718,7.033l71.687,39.807c5.018,2.776,8.136,8.054,8.146,13.788
	v78.789c-0.011,5.732-3.129,11.011-8.146,13.786l-71.687,39.806c-4.84,2.685-10.722,2.685-15.563,0l-71.687-39.806
	c-5.016-2.776-8.134-8.054-8.146-13.786V60.627c0.011-5.734,3.129-11.011,8.146-13.788L92.155,7.033
	C96.996,4.35,102.877,4.35,107.718,7.033z"/>
<path fill="#FFFFFF" d="M84.097,52.973v15.753H69.948c-1.775,0-3.348-0.725-3.907-1.792l-5.492-10.505
	c-0.719-1.377,0.445-2.861,2.606-3.319c0.427-0.09,0.863-0.136,1.3-0.137H84.097z M115.782,52.973h19.64
	c2.275,0,4.123,1.176,4.123,2.625c-0.002,0.291-0.076,0.576-0.214,0.831l-5.493,10.505c-0.557,1.074-2.138,1.792-3.907,1.792
	h-14.148V52.973z M99.939,155.375c-21.875,0-39.605-17.635-39.605-39.385c0-21.75,17.73-39.385,39.605-39.385
	c21.875,0,39.605,17.635,39.605,39.385C139.545,137.74,121.814,155.375,99.939,155.375z M92.019,52.973h15.841v15.753H92.019V52.973
	z M99.939,134.646l17.005,10.415c0.495,0.304,1.09,0.402,1.656,0.273c1.257-0.318,2.028-1.582,1.741-2.846l-4.252-20.068
	l14.762-13.633c0.438-0.406,0.708-0.96,0.76-1.556c0.146-1.286-0.77-2.449-2.054-2.606l-19.631-1.989l-7.885-18.834
	c-0.341-0.862-1.173-1.429-2.1-1.429c-0.926,0-1.758,0.567-2.098,1.429l-7.885,18.834l-19.63,1.989
	c-0.581,0.059-1.116,0.342-1.491,0.79c-0.839,0.996-0.753,2.475,0.196,3.366l14.761,13.633l-4.251,20.069
	c-0.124,0.587-0.031,1.199,0.261,1.722c0.292,0.539,0.794,0.937,1.386,1.097s1.224,0.07,1.749-0.248l17.005-10.413L99.939,134.646z"
	/>
</svg>
