<?xml version="1.0" encoding="utf-8"?>
<!-- Generator: Adobe Illustrator 15.0.0, SVG Export Plug-In . SVG Version: 6.00 Build 0)  -->
<!DOCTYPE svg PUBLIC "-//W3C//DTD SVG 1.1//EN" "http://www.w3.org/Graphics/SVG/1.1/DTD/svg11.dtd">
<svg version="1.1" id="图层_1" xmlns="http://www.w3.org/2000/svg" xmlns:xlink="http://www.w3.org/1999/xlink" x="0px" y="0px"
	 width="200px" height="200px" viewBox="0 0 200 200" enable-background="new 0 0 200 200" xml:space="preserve">
<path fill="#D9D9D9" d="M107.718,7.033l71.687,39.807c5.018,2.776,8.136,8.054,8.146,13.788v78.789
	c-0.011,5.732-3.129,11.011-8.146,13.786l-71.687,39.806c-4.84,2.685-10.722,2.685-15.563,0l-71.687-39.806
	c-5.016-2.776-8.134-8.054-8.146-13.786V60.627c0.011-5.734,3.129-11.011,8.146-13.788L92.155,7.033
	C96.996,4.35,102.877,4.35,107.718,7.033z"/>
<path fill="#EBEBEB" d="M100.729,19.473c-0.49-0.273-1.087-0.273-1.579,0L27.464,59.279c-0.493,0.27-0.799,0.787-0.801,1.348v78.789
	c0,0.551,0.303,1.067,0.801,1.346l71.686,39.808c0.492,0.272,1.089,0.272,1.58,0l71.687-39.808c0.491-0.27,0.799-0.785,0.801-1.346
	V60.627c-0.002-0.562-0.31-1.078-0.801-1.348L100.729,19.473z M107.718,7.033l71.687,39.807c5.018,2.776,8.136,8.054,8.146,13.788
	v78.789c-0.011,5.732-3.129,11.011-8.146,13.786l-71.687,39.806c-4.84,2.685-10.722,2.685-15.563,0l-71.687-39.806
	c-5.016-2.776-8.134-8.054-8.146-13.786V60.627c0.011-5.734,3.129-11.011,8.146-13.788L92.155,7.033
	C96.996,4.35,102.877,4.35,107.718,7.033z"/>
<path fill="#FFFFFF" d="M99.939,157.763c-17.493,0-31.666-14.104-31.666-31.495v-6.637h63.337v6.637
	c0,17.392-14.18,31.495-31.666,31.495H99.939z M90.083,144.622c2.138,2.999,5.511,4.482,9.851,4.482c4.34,0,7.713-1.483,9.852-4.482
	c0.759-1.063,0.509-2.535-0.564-3.296c-1.07-0.757-2.552-0.508-3.314,0.559c-1.182,1.65-3.087,2.493-5.979,2.493
	c-2.892,0-4.797-0.838-5.979-2.493c-0.759-1.063-2.245-1.312-3.313-0.559c-1.069,0.755-1.318,2.233-0.564,3.296H90.083z
	 M88.064,127.503c2.185,0,3.96-1.762,3.96-3.937c0-2.173-1.77-3.936-3.96-3.936c-2.186,0-3.96,1.763-3.96,3.936
	C84.104,125.741,85.874,127.503,88.064,127.503z M111.815,127.503c2.185,0,3.959-1.762,3.959-3.937c0-2.173-1.77-3.936-3.959-3.936
	c-2.186,0-3.96,1.763-3.96,3.936C107.855,125.741,109.625,127.503,111.815,127.503z M155.355,112.256H44.517
	c-4.359,0.01-7.902-3.515-7.915-7.873v-4.431c0.007-4.361,3.549-7.891,7.91-7.883c0.943,0.001,1.877,0.172,2.76,0.503l20.996,7.75
	v-3.813c0-17.391,14.179-31.493,31.665-31.493c17.487,0,31.666,14.102,31.666,31.493v3.813l20.996-7.75
	c4.085-1.532,8.637,0.537,10.168,4.621c0.332,0.883,0.501,1.817,0.503,2.76v4.431c-0.013,4.358-3.557,7.883-7.915,7.873H155.355z
	 M131.606,74.598c-5.802-10.189-18.503-16.375-31.667-16.375c-13.212,0-25.918,6.235-31.666,16.489v-9.697
	c0-13.045,10.635-23.621,23.75-23.621h15.837c13.115,0,23.75,10.576,23.75,23.621v9.583H131.606L131.606,74.598z M95.979,96.508
	c-2.185,0-3.96,1.764-3.96,3.937c0,2.174,1.77,3.938,3.96,3.938h7.916c2.185,0,3.961-1.764,3.961-3.938
	c0-2.173-1.77-3.937-3.961-3.937H95.979z"/>
</svg>
